<svg width="24" height="24" viewBox="0 0 24 24" fill="none" xmlns="http://www.w3.org/2000/svg">
<path d="M16.8492 7.05025C17.2398 7.44078 17.2398 8.07394 16.8492 8.46447L13.3137 12L16.8492 15.5355C17.2398 15.9261 17.2398 16.5592 16.8492 16.9497C16.4587 17.3403 15.8256 17.3403 15.435 16.9497L11.8995 13.4142L8.36396 16.9497C7.97344 17.3403 7.34027 17.3403 6.94975 16.9497C6.55922 16.5592 6.55922 15.9261 6.94975 15.5355L10.4853 12L6.94975 8.46447C6.55922 8.07394 6.55922 7.44078 6.94975 7.05025C7.34027 6.65973 7.97344 6.65973 8.36396 7.05025L11.8995 10.5858L15.435 7.05025C15.8256 6.65973 16.4587 6.65973 16.8492 7.05025Z" fill="black"/>
</svg>
