<svg width="24" height="24" viewBox="0 0 40 40" fill="none" xmlns="http://www.w3.org/2000/svg">
<mask id="mask0_44_333" style="mask-type:alpha" maskUnits="userSpaceOnUse" x="8" y="8" width="24" height="24">
<path fill-rule="evenodd" clip-rule="evenodd" d="M32 20C32 26.6274 26.6274 32 20 32C13.3726 32 8 26.6274 8 20C8 13.3726 13.3726 8 20 8C26.6274 8 32 13.3726 32 20ZM20.43 16.8589C19.2628 17.3444 16.9301 18.3492 13.4319 19.8733C12.8638 20.0992 12.5663 20.3202 12.5392 20.5363C12.4934 20.9015 12.9507 21.0453 13.5735 21.2411C13.6582 21.2678 13.746 21.2954 13.8359 21.3246C14.4486 21.5238 15.2728 21.7568 15.7013 21.766C16.0899 21.7744 16.5237 21.6142 17.0026 21.2853C20.2712 19.079 21.9584 17.9638 22.0643 17.9398C22.139 17.9228 22.2426 17.9015 22.3128 17.9638C22.3829 18.0262 22.376 18.1443 22.3686 18.176C22.3233 18.3691 20.5281 20.0381 19.5991 20.9018C19.3095 21.171 19.1041 21.362 19.0621 21.4056C18.968 21.5033 18.8721 21.5958 18.78 21.6846C18.2108 22.2333 17.7839 22.6448 18.8036 23.3168C19.2936 23.6397 19.6858 23.9067 20.0769 24.1731C20.5042 24.4641 20.9303 24.7543 21.4816 25.1157C21.6221 25.2077 21.7562 25.3034 21.8869 25.3965C22.3841 25.751 22.8307 26.0694 23.3826 26.0186C23.7032 25.9891 24.0345 25.6876 24.2027 24.7884C24.6002 22.6631 25.3816 18.0585 25.5622 16.161C25.578 15.9947 25.5581 15.782 25.5422 15.6886C25.5262 15.5952 25.4928 15.4621 25.3714 15.3636C25.2276 15.2469 25.0056 15.2223 24.9064 15.2241C24.455 15.232 23.7626 15.4728 20.43 16.8589Z" fill="black"/>
</mask>
<g mask="url(#mask0_44_333)">
<rect x="8" y="8" width="24" height="24" fill="#F3F4F6"/>
</g>
</svg>
