<svg width="24" height="24" viewBox="0 0 48 48" fill="none" xmlns="http://www.w3.org/2000/svg">
<mask id="mask0_61_2045" style="mask-type:alpha" maskUnits="userSpaceOnUse" x="8" y="7" width="32" height="33">
<path d="M35.0894 13.5397C33.0498 12.6039 30.8626 11.9144 28.5759 11.5195C28.5342 11.5119 28.4926 11.5309 28.4712 11.569C28.1899 12.0693 27.8783 12.7219 27.6601 13.2349C25.2005 12.8667 22.7536 12.8667 20.3444 13.2349C20.1262 12.7105 19.8033 12.0693 19.5208 11.569C19.4993 11.5322 19.4577 11.5131 19.4161 11.5195C17.1305 11.9131 14.9434 12.6026 12.9026 13.5397C12.8849 13.5473 12.8698 13.56 12.8597 13.5765C8.71119 19.7743 7.57473 25.8198 8.13224 31.7903C8.13476 31.8195 8.15116 31.8475 8.17386 31.8653C10.9109 33.8753 13.5623 35.0956 16.1644 35.9044C16.206 35.9171 16.2501 35.9019 16.2766 35.8676C16.8922 35.027 17.4409 34.1407 17.9113 33.2087C17.9391 33.1541 17.9126 33.0893 17.8558 33.0677C16.9855 32.7376 16.1568 32.3351 15.3596 31.878C15.2966 31.8411 15.2915 31.751 15.3495 31.7078C15.5173 31.5821 15.6851 31.4513 15.8453 31.3192C15.8743 31.2951 15.9146 31.29 15.9487 31.3053C21.1857 33.6963 26.8554 33.6963 32.0306 31.3053C32.0647 31.2888 32.1051 31.2938 32.1353 31.318C32.2955 31.45 32.4633 31.5821 32.6323 31.7078C32.6903 31.751 32.6865 31.8411 32.6235 31.878C31.8263 32.3439 30.9976 32.7376 30.126 33.0665C30.0693 33.0881 30.044 33.1541 30.0718 33.2087C30.5523 34.1394 31.101 35.0257 31.7052 35.8663C31.7304 35.9019 31.7758 35.9171 31.8175 35.9044C34.4322 35.0956 37.0835 33.8753 39.8206 31.8653C39.8446 31.8475 39.8597 31.8208 39.8622 31.7916C40.5294 24.889 38.7447 18.8931 35.131 13.5778C35.1221 13.56 35.107 13.5473 35.0894 13.5397ZM18.6934 28.1549C17.1167 28.1549 15.8175 26.7074 15.8175 24.9297C15.8175 23.152 17.0915 21.7044 18.6934 21.7044C20.3078 21.7044 21.5944 23.1647 21.5692 24.9297C21.5692 26.7074 20.2952 28.1549 18.6934 28.1549ZM29.3263 28.1549C27.7497 28.1549 26.4505 26.7074 26.4505 24.9297C26.4505 23.152 27.7244 21.7044 29.3263 21.7044C30.9408 21.7044 32.2274 23.1647 32.2022 24.9297C32.2022 26.7074 30.9408 28.1549 29.3263 28.1549Z" fill="black"/>
</mask>
<g mask="url(#mask0_61_2045)">
<rect x="8" y="7.99902" width="32" height="32" fill="#F3F4F6"/>
</g>
</svg>
