<svg width="24" height="24" viewBox="0 0 48 48" fill="none" xmlns="http://www.w3.org/2000/svg">
<mask id="mask0_61_2046" style="mask-type:alpha" maskUnits="userSpaceOnUse" x="8" y="7" width="32" height="33">
<path d="M39.6812 17.5992C39.6812 17.5992 39.3688 15.3929 38.4062 14.4242C37.1875 13.1492 35.825 13.1429 35.2 13.0679C30.725 12.7429 24.0063 12.7429 24.0063 12.7429H23.9937C23.9937 12.7429 17.275 12.7429 12.8 13.0679C12.175 13.1429 10.8125 13.1492 9.59375 14.4242C8.63125 15.3929 8.325 17.5992 8.325 17.5992C8.325 17.5992 8 20.1929 8 22.7804V25.2054C8 27.7929 8.31875 30.3867 8.31875 30.3867C8.31875 30.3867 8.63125 32.5929 9.5875 33.5617C10.8063 34.8367 12.4063 34.7929 13.1188 34.9304C15.6813 35.1742 24 35.2492 24 35.2492C24 35.2492 30.725 35.2367 35.2 34.9179C35.825 34.8429 37.1875 34.8367 38.4062 33.5617C39.3688 32.5929 39.6812 30.3867 39.6812 30.3867C39.6812 30.3867 40 27.7992 40 25.2054V22.7804C40 20.1929 39.6812 17.5992 39.6812 17.5992ZM20.6938 28.1492V19.1554L29.3375 23.6679L20.6938 28.1492Z" fill="black"/>
</mask>
<g mask="url(#mask0_61_2046)">
<rect x="8" y="7.99902" width="32" height="32" fill="#F3F4F6"/>
</g>
</svg>
