<svg width="24" height="24" viewBox="0 0 40 40" fill="none" xmlns="http://www.w3.org/2000/svg">
<mask id="mask0_44_332" style="mask-type:alpha" maskUnits="userSpaceOnUse" x="8" y="8" width="24" height="24">
<g clip-path="url(#clip0_44_332)">
<path d="M15.5502 29.75C24.6045 29.75 29.5583 22.2467 29.5583 15.7419C29.5583 15.5309 29.5536 15.3153 29.5442 15.1044C30.5079 14.4075 31.3395 13.5443 32 12.5553C31.1025 12.9546 30.1496 13.2154 29.1739 13.3287C30.2013 12.7129 30.9705 11.7455 31.3391 10.6058C30.3726 11.1786 29.3156 11.5826 28.2134 11.8006C27.4708 11.0116 26.489 10.4891 25.4197 10.3141C24.3504 10.139 23.2532 10.3211 22.2977 10.8321C21.3423 11.3431 20.5818 12.1547 20.1338 13.1413C19.6859 14.1279 19.5754 15.2346 19.8195 16.2903C17.8625 16.1921 15.9479 15.6837 14.2 14.7981C12.452 13.9125 10.9097 12.6694 9.67297 11.1495C9.0444 12.2332 8.85206 13.5156 9.13503 14.7361C9.418 15.9565 10.1551 17.0234 11.1964 17.72C10.4146 17.6952 9.64998 17.4847 8.96563 17.1059V17.1669C8.96492 18.3041 9.3581 19.4066 10.0783 20.2868C10.7985 21.167 11.8013 21.7706 12.9162 21.995C12.1921 22.1931 11.432 22.222 10.6948 22.0794C11.0095 23.0574 11.6216 23.9129 12.4458 24.5263C13.27 25.1398 14.2651 25.4806 15.2923 25.5012C13.5484 26.8711 11.3942 27.6141 9.17656 27.6106C8.78329 27.61 8.3904 27.5859 8 27.5384C10.2529 28.9837 12.8735 29.7514 15.5502 29.75Z" fill="black"/>
</g>
</mask>
<g mask="url(#mask0_44_332)">
<rect x="8" y="8" width="24" height="24" fill="#F3F4F6"/>
</g>
<defs>
<clipPath id="clip0_44_332">
<rect width="24" height="24" fill="white" transform="translate(8 8)"/>
</clipPath>
</defs>
</svg>
