<svg width="132" height="48" viewBox="0 0 132 48" fill="none" xmlns="http://www.w3.org/2000/svg">
<path d="M34.7551 13.1637C34.6146 13.0232 34.5344 12.8627 34.5344 12.6821C34.5344 12.5015 34.6146 12.341 34.7551 12.2005C35.0561 11.9396 35.4975 11.9396 35.7785 12.2005C35.9189 12.341 35.9992 12.5015 35.9992 12.6821C35.9992 12.8627 35.9189 13.0232 35.7785 13.1637C35.638 13.2841 35.4373 13.3443 35.2567 13.3443C35.0761 13.3844 34.8956 13.3042 34.7551 13.1637ZM32.9491 15.07C32.8287 14.9295 32.7685 14.769 32.7685 14.5884C32.7685 14.4078 32.8488 14.2473 32.9491 14.1068C33.21 13.8459 33.6514 13.8459 33.9123 14.1068C34.0327 14.2473 34.0929 14.4078 34.0929 14.5884C34.0929 14.769 34.0126 14.9295 33.9123 15.07C33.7718 15.1904 33.6113 15.2506 33.4307 15.2506C33.2501 15.2506 33.0896 15.1904 32.9491 15.07ZM30.9826 16.9562C30.8622 16.8358 30.802 16.6552 30.802 16.4746C30.802 16.294 30.8823 16.1335 30.9826 15.993C31.2435 15.7322 31.6849 15.7322 31.9458 15.993C32.0662 16.1134 32.1264 16.294 32.1264 16.4746C32.1264 16.6552 32.0461 16.8158 31.9458 16.9562C31.8053 17.0967 31.6448 17.1368 31.4642 17.1368C31.2836 17.1368 31.103 17.0766 30.9826 16.9562ZM29.1164 18.8425C28.976 18.7221 28.8957 18.5415 28.8957 18.3609C28.8957 18.1803 28.976 18.0197 29.1164 17.8793C29.4174 17.6184 29.8589 17.6184 30.1398 17.8793C30.2803 17.9997 30.3606 18.1803 30.3606 18.3609C30.3606 18.5415 30.2803 18.7221 30.1398 18.8425C29.9994 18.9829 29.7987 19.0231 29.6181 19.0231C29.4375 19.0231 29.2569 18.9829 29.1164 18.8425ZM27.3105 20.7086C27.17 20.5882 27.1299 20.4076 27.1299 20.227C27.1299 20.0465 27.2101 19.8859 27.3105 19.7455C27.5713 19.4846 28.0128 19.4846 28.2737 19.7455C28.4141 19.8659 28.4543 20.0465 28.4543 20.227C28.4543 20.4076 28.374 20.5882 28.2737 20.7086C28.1533 20.8491 27.9727 20.8892 27.7921 20.8892C27.5914 20.9294 27.4108 20.8692 27.3105 20.7086ZM25.1232 22.1133C25.1232 21.9327 25.2035 21.7722 25.3038 21.6317C25.5647 21.3708 26.0062 21.3708 26.267 21.6317C26.4075 21.7722 26.4476 21.9327 26.4476 22.1133C26.4476 22.2939 26.3674 22.4544 26.267 22.5949C26.1466 22.7153 25.966 22.7755 25.7854 22.7755C25.6048 22.7755 25.4443 22.6952 25.3038 22.5949C25.2035 22.4945 25.1232 22.2939 25.1232 22.1133ZM21.6317 26.2871C21.5113 26.1667 21.4511 25.9861 21.4511 25.8055C21.4511 25.6249 21.5314 25.4644 21.6317 25.3239C21.8926 25.063 22.334 25.063 22.5949 25.3239C22.7353 25.4644 22.7755 25.6249 22.7755 25.8055C22.7755 25.9861 22.6952 26.1466 22.5949 26.2871C22.4745 26.4275 22.2939 26.4677 22.1133 26.4677C21.9126 26.5078 21.7722 26.4275 21.6317 26.2871ZM19.6652 28.1733C19.5247 28.0529 19.4445 27.8723 19.4445 27.6917C19.4445 27.5111 19.5247 27.3506 19.6652 27.2101C19.9662 26.9493 20.4076 26.9493 20.6886 27.2101C20.829 27.3506 20.9093 27.5111 20.9093 27.6917C20.9093 27.8723 20.829 28.0329 20.6886 28.1733C20.5481 28.3138 20.3474 28.3539 20.1668 28.3539C20.0063 28.3941 19.8257 28.3138 19.6652 28.1733ZM17.8592 30.0796C17.7388 29.9592 17.6786 29.7786 17.6786 29.598C17.6786 29.4174 17.7589 29.2368 17.8592 29.1164C18.1201 28.8556 18.5615 28.8556 18.8224 29.1164C18.9428 29.2368 19.003 29.4174 19.003 29.598C19.003 29.7786 18.9227 29.9392 18.8224 30.0796C18.6819 30.2201 18.5214 30.2602 18.3408 30.2602C18.1602 30.2602 18.0197 30.2 17.8592 30.0796ZM15.993 31.9659C15.8526 31.8455 15.8124 31.6649 15.8124 31.4843C15.8124 31.3037 15.8927 31.1431 15.993 31.0027C16.2539 30.7418 16.6954 30.7418 16.9562 31.0027C17.0766 31.1431 17.1368 31.3037 17.1368 31.4843C17.1368 31.6649 17.0566 31.8455 16.9562 31.9659C16.8158 32.1063 16.6552 32.1465 16.4746 32.1465C16.274 32.1465 16.0934 32.1063 15.993 31.9659ZM14.0265 33.8521C13.8861 33.7317 13.8058 33.5511 13.8058 33.3705C13.8058 33.1899 13.8861 33.0294 14.0265 32.8889C14.3275 32.6281 14.769 32.6281 15.0299 32.8889C15.1703 33.0294 15.2506 33.1899 15.2506 33.3705C15.2506 33.5511 15.1703 33.7317 15.0299 33.8521C14.8894 33.9725 14.6887 34.0327 14.5081 34.0327C14.3275 34.0327 14.1469 33.9926 14.0265 33.8521ZM12.1804 35.7183C12.04 35.5778 11.9998 35.4173 11.9998 35.2367C11.9998 35.0561 12.0801 34.8956 12.1804 34.7551C12.4413 34.4942 12.8828 34.4942 13.1436 34.7551C13.2841 34.8956 13.3242 35.0561 13.3242 35.2367C13.3242 35.4173 13.244 35.5778 13.1436 35.7183C13.0232 35.8387 12.8426 35.8989 12.662 35.8989C12.5216 35.939 12.341 35.8788 12.1804 35.7183ZM13.1436 13.1637C13.264 13.0232 13.3242 12.8627 13.3242 12.6821C13.3242 12.5015 13.244 12.341 13.1436 12.2005C12.8828 11.9396 12.4413 11.9396 12.1804 12.2005C12.04 12.341 11.9998 12.5015 11.9998 12.6821C11.9998 12.8627 12.0801 13.0232 12.1804 13.1637C12.3008 13.2841 12.4814 13.3443 12.662 13.3443C12.8426 13.3844 13.0232 13.3042 13.1436 13.1637ZM15.0299 15.07C15.1703 14.9295 15.2506 14.769 15.2506 14.5884C15.2506 14.4078 15.1703 14.2473 15.0299 14.1068C14.7289 13.8459 14.2874 13.8459 14.0065 14.1068C13.866 14.2473 13.7857 14.4078 13.7857 14.5884C13.7857 14.769 13.866 14.9295 14.0065 15.07C14.1469 15.1904 14.3476 15.2506 14.5282 15.2506C14.6887 15.2506 14.8693 15.1904 15.0299 15.07ZM16.9362 16.9562C17.0566 16.8358 17.1168 16.6552 17.1168 16.4746C17.1168 16.294 17.0365 16.1335 16.9362 15.993C16.6753 15.7322 16.2338 15.7322 15.973 15.993C15.8526 16.1134 15.7924 16.294 15.7924 16.4746C15.7924 16.6552 15.8726 16.8158 15.973 16.9562C16.1134 17.0967 16.274 17.1368 16.4546 17.1368C16.6151 17.1368 16.7957 17.0766 16.9362 16.9562ZM18.8224 18.8425C18.9428 18.7221 19.003 18.5415 19.003 18.3609C19.003 18.1803 18.9227 18.0197 18.8224 17.8793C18.5615 17.6184 18.1201 17.6184 17.8592 17.8793C17.7388 17.9997 17.6786 18.1803 17.6786 18.3609C17.6786 18.5415 17.7589 18.7221 17.8592 18.8425C17.9997 18.9829 18.1602 19.0231 18.3408 19.0231C18.4813 19.0231 18.6819 18.9829 18.8224 18.8425ZM20.6685 20.7086C20.809 20.5882 20.8892 20.4076 20.8892 20.227C20.8892 20.0465 20.809 19.8859 20.6685 19.7455C20.4076 19.4846 19.9261 19.4846 19.6652 19.7455C19.5247 19.8659 19.4445 20.0465 19.4445 20.227C19.4445 20.4076 19.5247 20.5882 19.6652 20.7086C19.8057 20.8491 20.0063 20.8892 20.1869 20.8892C20.3675 20.9294 20.5481 20.8692 20.6685 20.7086ZM22.7755 22.1133C22.7755 21.9327 22.6952 21.7722 22.5949 21.6317C22.334 21.3708 21.8926 21.3708 21.6317 21.6317C21.4912 21.7722 21.4511 21.9327 21.4511 22.1133C21.4511 22.2939 21.5314 22.4544 21.6317 22.5949C21.7521 22.7153 21.9327 22.7755 22.1133 22.7755C22.2939 22.7755 22.4544 22.6952 22.5949 22.5949C22.7353 22.4945 22.7755 22.2939 22.7755 22.1133ZM24.461 24.5212C24.6015 24.3808 24.6416 24.2203 24.6416 24.0397C24.6416 23.8591 24.5614 23.6985 24.461 23.5581C24.2002 23.2972 23.7587 23.2972 23.4979 23.5581C23.3574 23.6985 23.3173 23.8591 23.3173 24.0397C23.3173 24.2203 23.3975 24.3808 23.4979 24.5212C23.6183 24.6416 23.7989 24.7018 23.9795 24.7018C24.1601 24.7018 24.3607 24.6216 24.461 24.5212ZM26.3473 26.2871C26.4877 26.1667 26.568 25.9861 26.568 25.8055C26.568 25.6249 26.4877 25.4644 26.3473 25.3239C26.0463 25.063 25.6048 25.063 25.344 25.3239C25.2035 25.4644 25.1232 25.6249 25.1232 25.8055C25.1232 25.9861 25.2035 26.1466 25.344 26.2871C25.4844 26.4275 25.6851 26.4677 25.8657 26.4677C26.0062 26.5078 26.2068 26.4275 26.3473 26.2871ZM28.2536 28.1733C28.374 28.0529 28.4342 27.8723 28.4342 27.6917C28.4342 27.5111 28.3539 27.3506 28.2536 27.2101C27.9927 26.9493 27.5513 26.9493 27.2904 27.2101C27.17 27.3506 27.1098 27.5111 27.1098 27.6917C27.1098 27.8723 27.1901 28.0329 27.2904 28.1733C27.4309 28.3138 27.5914 28.3539 27.772 28.3539C27.9325 28.3941 28.1131 28.3138 28.2536 28.1733ZM30.1398 30.0796C30.2602 29.9592 30.3204 29.7786 30.3204 29.598C30.3204 29.4174 30.2402 29.2368 30.1398 29.1164C29.879 28.8556 29.4375 28.8556 29.1766 29.1164C29.0562 29.2368 28.996 29.4174 28.996 29.598C28.996 29.7786 29.0763 29.9392 29.1766 30.0796C29.3171 30.2201 29.4776 30.2602 29.6582 30.2602C29.8388 30.2602 29.9994 30.2 30.1398 30.0796ZM31.9057 31.9659C32.0461 31.8455 32.0863 31.6649 32.0863 31.4843C32.0863 31.3037 32.006 31.1431 31.9057 31.0027C31.6448 30.7418 31.2033 30.7418 30.9425 31.0027C30.8221 31.1431 30.7619 31.3037 30.7619 31.4843C30.7619 31.6649 30.8421 31.8455 30.9425 31.9659C31.0829 32.1063 31.2435 32.1465 31.4241 32.1465C31.6047 32.1465 31.8053 32.1063 31.9057 31.9659ZM33.9123 33.8521C34.0528 33.7317 34.0929 33.5511 34.0929 33.3705C34.0929 33.1899 34.0126 33.0294 33.9123 32.8889C33.6514 32.6281 33.21 32.6281 32.9491 32.8889C32.8087 33.0294 32.7685 33.1899 32.7685 33.3705C32.7685 33.5511 32.8488 33.7317 32.9491 33.8521C33.0695 33.9725 33.2501 34.0327 33.4307 34.0327C33.6113 34.0327 33.7919 33.9926 33.9123 33.8521ZM35.7785 35.7183C35.9189 35.5778 35.9992 35.4173 35.9992 35.2367C35.9992 35.0561 35.9189 34.8956 35.7785 34.7551C35.4775 34.4942 35.036 34.4942 34.7752 34.7551C34.6347 34.8956 34.5544 35.0561 34.5544 35.2367C34.5544 35.4173 34.6347 35.5778 34.7752 35.7183C34.9156 35.8387 35.1163 35.8989 35.2969 35.8989C35.4574 35.939 35.638 35.8788 35.7785 35.7183ZM17.5984 13.6653C19.5247 12.4212 21.6116 11.8192 23.9393 11.7791C26.2269 11.7791 28.3339 12.4012 30.2803 13.6653L34.3337 9.61194C31.1632 7.22405 27.7319 6 23.9393 6C20.1468 6 16.6753 7.22405 13.5851 9.61194L17.5984 13.6653ZM13.5449 30.3004C12.2607 28.3539 11.6186 26.247 11.6186 23.9995C11.6186 21.712 12.2406 19.605 13.5449 17.6987L9.53168 13.6854C7.16385 16.7756 6 20.207 6 24.0397C6 27.7921 7.18392 31.2635 9.57181 34.3939L13.5449 30.3004ZM30.3004 34.3337C28.374 35.6179 26.2871 36.2801 23.9995 36.3203C21.6718 36.3203 19.5448 35.6982 17.6184 34.3738L13.565 38.3871C16.6954 40.8151 20.1668 42.0392 23.9995 41.999C27.7921 41.9589 31.2234 40.7549 34.3337 38.3871L30.3004 34.3337ZM34.2334 17.6586C35.5176 19.605 36.1798 21.7521 36.1597 24.0798C36.1196 26.3272 35.4975 28.3941 34.2334 30.2803L38.2868 34.2936C40.6747 31.2033 41.8987 27.772 41.8987 23.9995C41.9388 20.1668 40.7148 16.6954 38.2868 13.565L34.2334 17.6586ZM38.4674 35.5778C40.0125 35.5778 41.3168 36.8219 41.3168 38.4272C41.3168 39.9723 40.0727 41.2767 38.4674 41.2767C36.9223 41.2767 35.6179 40.0325 35.6179 38.4272C35.638 36.842 36.8821 35.5778 38.4674 35.5778ZM9.49155 35.5778C11.0367 35.5778 12.3008 36.8219 12.3008 38.4272C12.3008 39.9723 11.0567 41.2767 9.49155 41.2767C7.92637 41.2767 6.68226 40.0325 6.68226 38.4272C6.68226 36.842 7.94644 35.5778 9.49155 35.5778ZM38.5075 6.62206C40.0526 6.62206 41.3168 7.86617 41.3168 9.47148C41.3168 11.0567 40.0727 12.3209 38.5075 12.3209C36.9423 12.3209 35.6982 11.0768 35.6982 9.47148C35.7183 7.88624 36.9624 6.62206 38.5075 6.62206ZM9.45141 6.62206C10.9965 6.62206 12.3008 7.86617 12.3008 9.43135C12.3008 10.9765 11.0567 12.2406 9.45141 12.2406C7.9063 12.2406 6.60199 10.9965 6.60199 9.43135C6.62206 7.88624 7.86617 6.62206 9.45141 6.62206ZM62.8881 29.3372L61.4835 28.0931C60.6407 29.0964 58.935 29.6783 57.5103 29.6783C55.1224 29.6783 53.1961 28.2335 52.9753 25.9259H63.5904C64.072 20.9494 61.1624 18.5816 57.3297 18.5816C53.5773 18.5816 50.8483 21.2705 50.8483 25.063C50.8483 29.0362 53.5372 31.5846 57.4501 31.5846C59.4166 31.5645 61.6039 30.8221 62.8881 29.3372ZM61.6641 24.14H52.9954C53.3566 21.7521 55.2428 20.4076 57.4301 20.4076C59.8581 20.4076 61.5236 21.6919 61.6641 24.0597V24.14ZM68.7475 13.6052H66.6807V31.3438H68.7475V13.6052ZM74.6069 18.8425H72.6805V31.3438H74.7473V24.3808C74.7473 22.0932 76.4128 20.6484 78.4395 20.6284C79.2823 20.6284 79.9445 20.8491 80.6067 21.3307L81.5298 19.5649C80.7472 18.9829 79.7238 18.6017 78.6201 18.6418C77.1754 18.6418 75.6303 19.0833 74.7875 20.7086L74.6069 18.8425ZM82.7337 25.1032C82.7337 28.8957 85.4628 31.5645 89.2152 31.5645C92.9676 31.5645 95.6966 28.9158 95.6966 25.1032C95.6966 21.2304 93.0077 18.5415 89.2152 18.5415C85.5029 18.5415 82.7337 21.2304 82.7337 25.1032ZM93.6498 25.1032C93.6097 27.7118 91.7636 29.598 89.1951 29.598C86.6467 29.598 84.8006 27.7118 84.8006 25.1032C84.8006 22.2939 86.6868 20.4478 89.2352 20.4478C91.7235 20.4678 93.6498 22.334 93.6498 25.1032ZM98.6865 18.8023V31.3438H100.753V24.6216C100.753 22.3741 102.339 20.5682 104.586 20.528C106.974 20.528 108.379 22.033 108.379 24.441V31.3438H110.445V24.441C110.445 20.7488 108.118 18.6418 104.947 18.6418C103.282 18.6418 101.737 19.3441 100.673 20.809L100.553 18.8224L98.6865 18.8023ZM126.358 13.6052H124.291V21.0899C123.408 19.3843 121.382 18.5816 119.616 18.5816C116.084 18.5816 113.315 20.8692 113.315 25.063C113.315 29.1967 116.084 31.5445 119.656 31.5445C121.502 31.5445 123.348 30.7418 124.331 28.996L124.452 31.2836H126.398L126.358 13.6052ZM119.796 20.528C122.264 20.528 124.231 22.3741 124.231 25.0229C124.231 27.7519 122.285 29.598 119.796 29.598C117.368 29.598 115.402 27.9325 115.402 25.063C115.402 22.1534 117.328 20.5682 119.716 20.528H119.796Z" fill="#F1F1F1"/>
</svg>
