<svg width="172" height="48" viewBox="0 0 172 48" fill="none" xmlns="http://www.w3.org/2000/svg">
<path d="M57.5383 14.0291C57.452 14.0399 57.1443 14.0992 56.8636 14.1586C55.1416 14.5365 53.9541 15.5135 53.452 16.971C53.2793 17.4622 53.2739 17.4892 53.2793 18.3907C53.2793 19.2274 53.2955 19.3515 53.425 19.7834C53.668 20.5769 54.1268 21.3866 54.6504 21.948C55.1902 22.5256 56.367 23.4432 58.0188 24.5714C59.7084 25.7212 60.2805 26.5147 60.2859 27.7293C60.2913 28.1449 60.2698 28.2583 60.1456 28.5282C59.8757 29.1058 59.2063 29.6078 58.4776 29.7805C58.0188 29.8885 57.2307 29.8831 56.8582 29.7751C55.8326 29.4782 55.0876 28.3716 55.0822 27.1463C55.0822 26.6389 55.228 26.0397 55.4817 25.5269C55.6112 25.2678 55.6976 25.0411 55.6706 25.0303C55.649 25.0141 55.4385 24.9871 55.2064 24.9655C54.3535 24.9007 53.4574 25.1976 52.8852 25.7266C52.4804 26.0991 52.2483 26.4931 52.1133 27.0221C51.8272 28.1503 52.0809 29.1166 52.896 29.9425C53.9972 31.0707 55.4871 31.5889 57.5977 31.5889C58.6234 31.5889 59.2603 31.4971 60.0646 31.2272C61.3871 30.79 62.5585 29.7913 63.0659 28.6631C63.3412 28.064 63.4168 27.6861 63.4168 26.9466C63.4168 26.3474 63.4006 26.2232 63.2657 25.84C62.9958 25.0518 62.3966 24.226 61.6894 23.6538C61.4681 23.4756 60.5019 22.7631 59.5464 22.0667C57.4628 20.5499 57.0525 20.1612 56.5991 19.2382C56.2266 18.4932 56.1672 17.4028 56.4641 16.7443C56.6531 16.3178 57.1173 15.8806 57.5491 15.7187C58.2671 15.4487 59.147 15.5297 59.7677 15.9292C60.4533 16.3772 60.7502 16.998 60.7502 18.002C60.7502 18.7254 60.5235 19.3299 60.0106 19.9939C59.8757 20.172 59.7839 20.3286 59.8055 20.3502C59.8703 20.4203 61.2576 20.3879 61.5329 20.3124C62.0187 20.1774 62.5153 19.8805 62.8284 19.5405C63.3682 18.9629 63.6111 18.3097 63.6111 17.473C63.6057 16.6093 63.3088 15.9993 62.4937 15.2328C61.7974 14.5743 60.9769 14.2126 59.8055 14.0507C59.4277 13.9967 57.9162 13.9805 57.5383 14.0291Z" fill="#F1F1F1"/>
<path d="M88.7054 17.8938C87.3019 18.4768 86.7567 19.497 86.3033 22.4119C86.0819 23.8424 86.0442 24.0206 85.8444 24.8411C85.3046 27.0003 84.4625 28.5009 83.5341 28.9544C82.9943 29.2135 82.2601 29.1325 81.8985 28.7708C81.2345 28.1015 81.105 26.1906 81.6178 24.5442C81.9416 23.4969 82.6542 22.304 83.4153 21.5429C84.1225 20.8249 84.9052 20.3607 85.839 20.0908L86.2871 19.9612L86.2601 19.7507C86.1845 19.1893 85.5961 19.022 84.2736 19.1731C83.167 19.3027 81.9039 19.7885 81.0888 20.4093C79.7662 21.4133 78.6866 23.1947 78.2926 25.0246C77.8877 26.8815 78.1198 28.733 78.9026 29.9098C79.5233 30.8437 80.3546 31.2485 81.553 31.1999C82.0496 31.1783 82.2169 31.146 82.557 31.011C83.831 30.509 84.9376 29.3376 85.6069 27.783L85.7958 27.3511L85.7635 28.1339C85.6015 31.9395 84.835 34.5251 83.4747 35.8153C83.0159 36.2525 82.6542 36.409 82.0334 36.436C81.5908 36.4576 81.5206 36.4468 81.2723 36.3173C80.8243 36.096 80.5112 35.6479 80.3924 35.0703C80.2575 34.4172 80.4302 33.7694 80.8512 33.3322L81.1373 33.0407L80.997 32.9867C80.4788 32.787 79.6745 32.7924 79.1239 32.9975C78.3196 33.2944 77.8391 33.899 77.688 34.8058C77.4721 36.1391 78.5139 37.5156 80.0145 37.8773C80.8027 38.0662 81.9255 38.0338 82.8215 37.8017C84.5651 37.3429 85.9092 36.1283 86.8431 34.1581C87.1615 33.4941 87.5826 32.3011 87.8093 31.4159C88.4247 29.0353 88.8079 25.478 88.8133 22.169C88.8133 20.7493 88.9699 18.52 89.1102 17.8884C89.148 17.7372 89.0832 17.7372 88.7054 17.8938Z" fill="#F1F1F1"/>
<path d="M91.241 18.5683C91.268 18.6655 91.4029 19.3727 91.4623 19.7289C91.5433 20.2309 91.5811 21.6398 91.5379 22.4657C91.4731 23.6047 91.3868 24.3442 91.0575 26.552C90.6796 29.0675 90.6526 29.3536 90.7336 29.7639C90.8577 30.4008 91.1168 30.7247 91.689 30.946C91.9535 31.0486 92.1317 31.0702 92.855 31.0918C93.3192 31.1026 93.7349 31.1026 93.7781 31.0864C93.8321 31.0648 93.8375 30.9892 93.7997 30.7409C93.7295 30.2551 93.7295 27.9015 93.8051 27.3509C94.1128 25.019 94.8739 23.1351 95.9913 21.9367C96.8388 21.0298 97.5945 20.8787 97.967 21.5481C98.0965 21.7802 98.1019 21.8234 98.0965 22.7086C98.0911 23.6857 98.0425 24.0581 97.5891 26.6492C97.3354 28.0743 97.2598 29.2079 97.3732 29.7045C97.6269 30.8111 98.3394 31.2591 99.9912 31.3671C100.38 31.3887 100.833 31.3995 101.011 31.3779L101.33 31.3455L101.028 31.1404C100.04 30.4602 99.9426 29.3104 100.558 25.5534C101.087 22.32 101.114 21.0946 100.661 20.1014C100.466 19.6695 100.099 19.2755 99.7483 19.1243C99.608 19.065 99.3219 18.984 99.1059 18.9516C98.1343 18.7897 97.1626 19.2539 96.0884 20.3821C95.1492 21.3807 94.496 22.4279 93.9724 23.7882C93.8429 24.1337 93.8159 24.1769 93.8375 24.0042C93.994 22.7626 94.021 21.5589 93.8914 21.0245C93.6107 19.8423 92.8226 19.0272 91.5163 18.5791C91.2356 18.482 91.214 18.482 91.241 18.5683Z" fill="#F1F1F1"/>
<path d="M69.4682 18.7681C67.2658 19.5185 65.6518 21.7748 65.2685 24.625C65.0256 26.4765 65.3387 28.2903 66.0998 29.413C66.4399 29.9151 67.2118 30.6168 67.7084 30.8705C68.4911 31.2754 68.9284 31.3779 69.8352 31.3779C71.9998 31.3725 73.7704 30.3091 74.8824 28.3496C75.1577 27.8584 75.5248 26.9839 75.6921 26.4225C76.1347 24.9057 76.2103 23.0056 75.8756 21.7262C75.5787 20.6035 74.8878 19.6264 74.0835 19.2216C73.2846 18.8113 72.0916 18.9463 70.8609 19.5832C69.8244 20.1176 69.0633 20.9705 68.3724 22.3632C68.0809 22.9624 68.0593 22.8868 68.3076 22.1149C68.6693 20.9867 69.3872 19.9827 70.3966 19.1946C70.5802 19.0542 70.5964 19.0164 70.5478 18.9193C70.4776 18.7897 70.1699 18.6332 69.9864 18.6332C69.9216 18.6332 69.6841 18.6979 69.4682 18.7681ZM72.0754 20.5819C72.3831 20.6574 72.7664 20.9975 72.9391 21.3268C73.236 21.9206 73.3494 22.6223 73.3494 23.8963C73.3494 25.5966 73.0741 26.8598 72.4209 28.1337C71.8055 29.3483 70.9904 29.9313 70.0566 29.8449C69.1011 29.7585 68.5397 28.9812 68.3238 27.432C68.259 26.9785 68.2428 25.5211 68.2968 25.1918C68.4803 24.0474 68.9068 22.9732 69.5599 21.9961C70.2941 20.8949 71.2333 20.3713 72.0754 20.5819Z" fill="#F1F1F1"/>
<path d="M107.085 18.7951C105.514 19.3835 104.267 20.6574 103.544 22.4334C103.053 23.6372 102.869 24.7168 102.912 26.1634C102.977 28.1823 103.517 29.44 104.753 30.4333C105.59 31.1026 106.383 31.3779 107.484 31.3779C109.822 31.3779 111.614 30.2335 112.742 28.0311C113.86 25.8503 114.108 22.9462 113.347 21.0623C112.893 19.9341 112.04 19.1568 111.096 19.011C110.205 18.8761 108.915 19.2593 107.938 19.9611C107.29 20.4199 106.61 21.2836 106.092 22.3038C105.897 22.6871 105.816 22.8113 105.838 22.6817C105.962 22.0339 106.443 20.9921 106.885 20.4037C107.15 20.0583 107.711 19.4969 108.1 19.1946C108.283 19.0542 108.3 19.0164 108.251 18.9193C108.175 18.7789 107.868 18.6332 107.663 18.6332C107.582 18.6386 107.323 18.7087 107.085 18.7951ZM110.022 20.6844C110.443 20.9003 110.734 21.3808 110.918 22.1689C111.004 22.5306 111.02 22.8166 111.02 23.9232C111.02 25.0838 111.004 25.3213 110.896 25.8557C110.588 27.3888 109.897 28.8355 109.212 29.3753C108.467 29.9636 107.479 30.0122 106.88 29.4886C106.367 29.0352 106.076 28.2039 105.973 26.8922C105.843 25.3267 106.108 24.069 106.848 22.6817C107.636 21.1972 108.58 20.4577 109.557 20.5549C109.703 20.5711 109.914 20.6304 110.022 20.6844Z" fill="#F1F1F1"/>
<path d="M25.0431 6.01871C23.8592 6.07091 22.3906 6.29866 21.3135 6.59997C18.9173 7.26901 16.3906 8.60709 14.3147 10.3082C13.1213 11.288 11.9469 12.5858 11.0644 13.9049C9.28738 16.562 8.2933 19.4351 8.03945 22.6475C7.98725 23.2952 7.98725 24.5977 8.03708 25.2572C8.20789 27.4589 8.75357 29.5989 9.64325 31.5633C11.1166 34.8136 13.6646 37.6226 16.9173 39.5799C18.8082 40.7163 20.9932 41.4732 23.3657 41.8148C25.3942 42.109 27.4464 42.052 29.4867 41.6487C30.2649 41.4945 31.3135 41.1956 32.1012 40.9014C33.5389 40.3652 35.0644 39.5586 36.272 38.6973C37.2021 38.033 37.8308 37.5016 38.5971 36.7305C39.9589 35.3616 41.074 33.8219 41.9162 32.1422C42.5425 30.8942 43.0574 29.3213 43.3278 27.8432C43.5461 26.638 43.6267 25.8503 43.6078 25.0911C43.5793 23.9428 43.3919 23.5965 43.1665 24.2845C43.0882 24.5312 42.9743 25.122 42.7821 26.2892C42.4144 28.5336 41.7643 30.3936 40.6967 32.2679C40.2104 33.1196 39.5223 34.0686 38.7726 34.9251C38.4476 35.2952 37.6077 36.1374 37.2329 36.4696C36.348 37.2478 35.463 37.9026 34.5876 38.4245C34.1534 38.6831 33.2637 39.1386 32.7845 39.345C30.4832 40.3415 28.189 40.7804 25.7785 40.6831C24.4144 40.6285 23.3491 40.4933 22.2174 40.2276C19.6504 39.6297 17.2115 38.3889 15.1806 36.6475C14.858 36.3723 14.0845 35.6084 13.7595 35.2454C12.4025 33.7388 11.1308 31.7222 10.4404 29.9903C10.2506 29.5134 10.132 29.1623 9.96116 28.5621C9.03589 25.345 9.11893 21.9618 10.1984 18.721C10.8769 16.6902 11.9635 14.7803 13.3918 13.1101C13.7785 12.6593 14.737 11.6961 15.1688 11.326C16.2174 10.4268 17.4772 9.59879 18.6706 9.02702C20.597 8.09938 22.5353 7.55371 24.6041 7.35442C25.2234 7.29511 26.5638 7.28325 27.221 7.33307C28.4191 7.42085 29.4938 7.60828 30.5947 7.9167C33.463 8.72335 35.9185 10.1516 37.9684 12.2085C39.2709 13.5158 40.2863 14.9321 41.0977 16.5715C41.399 17.1836 41.5745 17.5917 41.8592 18.3462C42.1772 19.186 42.2863 19.3758 42.3053 19.1125C42.3409 18.619 41.6505 16.8989 40.8675 15.53C39.7786 13.6273 38.2412 11.8289 36.5994 10.5336C34.7584 9.07922 32.4096 7.94992 29.9494 7.33307C28.7109 7.02227 27.5769 6.87755 26.2198 6.85383C23.081 6.79926 20.4476 7.47779 17.5697 9.08159C15.4653 10.256 13.5626 11.9309 12.0774 13.9215C11.0596 15.2856 10.3479 16.6522 9.7595 18.3651C9.29687 19.7056 9.00505 21.0698 8.86745 22.517C8.80813 23.1386 8.79627 24.5929 8.84372 25.2406C9.01454 27.5063 9.65511 29.7958 10.7109 31.9049C11.6551 33.791 12.9837 35.5135 14.6065 36.9512C14.7726 37.0983 14.9078 37.224 14.9078 37.2288C14.9078 37.2501 14.4452 36.8468 14.113 36.536C13.1403 35.6273 12.3313 34.6546 11.5033 33.4067C10.0964 31.2833 9.16875 28.74 8.82237 26.0639C8.69663 25.1054 8.65629 23.6202 8.7251 22.6831C8.91252 20.1587 9.42973 18.2323 10.5068 16.0401C12.1201 12.7542 14.9078 9.95704 18.1344 8.38408C20.2198 7.36866 22.431 6.7352 24.635 6.52168C25.2518 6.46237 26.7346 6.46237 27.3752 6.52168C29.3895 6.71148 31.4583 7.23817 33.2115 8.01397C34.0965 8.40543 34.915 8.84435 35.6101 9.30223C37.9114 10.8159 39.8118 12.8444 41.1902 15.2572C41.9779 16.6403 42.635 18.3153 42.9957 19.8598C43.2116 20.7898 43.2922 21.3568 43.4251 22.8729C43.4915 23.6178 43.5485 23.9286 43.6244 23.9286C43.6718 23.9286 43.6908 23.8361 43.7098 23.466C43.7311 23.0579 43.6861 22.2608 43.603 21.5917C43.259 18.7756 42.0989 15.7151 40.5473 13.5276C39.9731 12.7186 39.2068 11.855 38.4073 11.1196C36.2412 9.12193 34.2056 7.86451 31.7501 7.00566C29.5366 6.22986 27.3966 5.91669 25.0431 6.01871ZM14.9908 37.2857C15.0146 37.3118 15.0288 37.3332 15.0217 37.3332C15.0146 37.3332 14.9908 37.3118 14.9671 37.2857C14.9434 37.2596 14.9291 37.2383 14.9363 37.2383C14.9434 37.2383 14.9671 37.2596 14.9908 37.2857Z" fill="#F1F1F1" stroke="#F1F1F1" stroke-width="0.1"/>
<path d="M25.4324 10.4713C24.4417 10.5096 23.289 10.7071 22.0998 11.0438C20.6615 11.449 19.3892 12.0659 18.1089 12.9791C16.5692 14.0737 15.5543 15.1381 14.5596 16.6904C13.7877 17.8959 13.2813 19.0289 12.9105 20.3796C12.3474 22.4217 12.317 24.8287 12.8214 26.9313C13.0969 28.0784 13.6702 29.5279 14.2456 30.5298C14.667 31.2656 15.2747 32.0498 15.8237 32.5659C16.1317 32.8562 16.1783 32.8602 15.9473 32.5739C15.4712 31.9873 15.3517 31.8361 15.1572 31.566C14.5636 30.7394 14.0815 29.8121 13.6378 28.6449C13.1253 27.2922 12.866 26.1794 12.7627 24.8852C12.5965 22.8047 12.8761 20.8594 13.6095 18.9906C14.1058 17.7266 15.0195 16.2328 15.9635 15.1381C17.0615 13.8661 18.8078 12.5678 20.4184 11.828C21.6805 11.2474 23.3863 10.7978 24.8854 10.6487C25.2926 10.6083 26.502 10.6144 26.9417 10.6587C28.3598 10.8019 29.6988 11.1002 30.7462 11.5074C32.3304 12.1243 33.6857 12.969 34.9519 14.1282C36.0783 15.1563 37.1338 16.5977 38.1244 18.4543C38.2216 18.6378 38.3148 18.8011 38.329 18.8172C38.3999 18.8898 38.3351 18.664 38.1852 18.3032C37.8023 17.3839 36.8623 15.9264 36.0297 14.9587C35.746 14.6281 35.1869 14.0657 34.8628 13.7854C33.6229 12.713 32.3325 11.9409 30.8009 11.3542C29.2673 10.7676 27.0835 10.4088 25.4324 10.4713Z" fill="#F1F1F1" stroke="#F1F1F1" stroke-width="0.3"/>
<path d="M25.3907 8.68439C23.3592 8.76169 21.5017 9.19239 19.6644 10.0074C18.2111 10.6524 17.0279 11.4122 15.8804 12.437C13.7952 14.2967 12.4401 16.3111 11.4623 18.9947C10.8908 20.5651 10.6809 21.8461 10.6787 23.7677C10.6787 25.0002 10.7568 25.8461 10.9712 26.9041C11.3596 28.8301 11.9579 30.3254 12.9849 31.94C13.9493 33.453 15.3066 34.8997 16.8069 36.0151C18.0481 36.9383 19.4233 37.6716 20.8566 38.1774C21.9773 38.5728 23.3346 38.8643 24.6317 38.988C25.105 39.0344 26.536 39.0521 27.1008 39.0212C28.6814 38.9328 30.1794 38.6037 31.6863 38.0184C32.5458 37.6849 33.3339 37.2763 34.2871 36.6711C35.9347 35.6241 37.0777 34.6037 38.0957 33.2652C39.0021 32.0747 39.6495 30.9682 40.1742 29.7092C40.5939 28.7042 40.9176 27.6308 41.0292 26.871C41.056 26.7031 41.0069 26.7959 40.9176 27.0808C40.3304 29.0068 39.6518 30.5065 38.7476 31.8804C37.6805 33.5016 36.6647 34.6081 35.3252 35.6065C33.3227 37.0996 31.5099 37.961 29.3757 38.4425C28.2617 38.6921 27.3709 38.7804 25.9935 38.7826C24.6987 38.7826 23.8302 38.6898 22.6001 38.4204C20.3766 37.9323 18.3785 36.9825 16.5278 35.5314C15.7062 34.8886 14.7329 33.9256 14.0319 33.062C13.2572 32.1101 12.4714 30.8003 11.9646 29.6208C11.5114 28.5673 11.1029 27.0057 10.9466 25.7225C10.8082 24.5761 10.7993 23.125 10.9265 21.9345C11.027 20.9958 11.1565 20.4127 11.4936 19.4166C11.978 17.9743 12.554 16.7816 13.3287 15.6198C13.9225 14.7274 14.4784 14.056 15.2776 13.2653C16.6863 11.8716 18.028 10.955 19.7805 10.1863C22.3211 9.07312 24.9799 8.67555 27.9246 8.97152C28.7595 9.05545 28.8287 9.05987 28.8555 9.04441C28.9113 9.01128 28.3912 8.89201 27.8464 8.8147C27.1722 8.71752 26.0627 8.66009 25.3907 8.68439Z" fill="#F1F1F1" stroke="#F1F1F1" stroke-width="0.3"/>
<path d="M31.216 9.59401C31.234 9.64896 31.3936 9.74283 32.0366 10.0817C33.2822 10.7342 33.9005 11.0959 34.7301 11.6591C36.0835 12.5772 37.1537 13.5984 38.1947 14.9675C38.7792 15.7345 39.2626 16.561 39.7123 17.5706C40.1394 18.5254 40.4339 19.361 40.7644 20.5584C40.9241 21.1331 41.0365 21.3369 41.0365 21.0507C41.0365 20.65 40.7307 19.5488 40.3575 18.6009C39.4852 16.3915 38.3026 14.5599 36.74 12.9893C36.0948 12.3414 35.4405 11.8057 34.5929 11.2356C33.4733 10.4778 32.4751 9.9466 31.6814 9.68559C31.3419 9.5757 31.2003 9.54593 31.216 9.59401Z" fill="#F1F1F1" stroke="#F1F1F1" stroke-width="0.3"/>
<path d="M41.7691 24.0119C41.7549 24.0641 41.7264 24.2516 41.7051 24.4271C41.4417 26.6027 41.0859 28.0357 40.3907 29.7415C40.1938 30.2207 39.7359 31.1626 39.4868 31.5897C38.73 32.9016 37.9328 33.9313 36.8391 35.0084C35.558 36.2706 34.6066 36.961 33.1309 37.6988C31.8498 38.3418 30.5734 38.8115 29.3919 39.0749C27.4868 39.4995 25.221 39.5494 23.3183 39.2053C22.0799 38.9823 20.8414 38.5932 19.5935 38.0333C19.2163 37.8649 18.8628 37.687 18.17 37.3216C17.9351 37.1982 17.7169 37.0962 17.6836 37.0986C17.5223 37.0986 18.1771 37.5517 18.8841 37.9313C20.5377 38.8163 22.5117 39.3904 24.5164 39.5683C25.0621 39.6182 26.8652 39.6087 27.3871 39.5565C29.2827 39.3619 30.7133 38.9894 32.4761 38.2279C33.902 37.611 34.934 36.9918 35.9992 36.1116C36.7679 35.4782 37.7834 34.4485 38.4097 33.668C39.8189 31.9147 40.9079 29.713 41.4536 27.5232C41.7074 26.4983 41.8901 25.0179 41.8498 24.2871C41.8308 23.9503 41.8071 23.8672 41.7691 24.0119Z" fill="#F1F1F1"/>
<path d="M121.102 15H123.453L128.769 25.5014L130.944 15.0225H133.954L130.637 31H128.198L122.904 20.7465L120.795 31H117.785L121.102 15Z" fill="url(#paint0_linear_11_176)"/>
<path d="M137.214 15H147.188L146.617 17.7268H139.653L138.818 21.8507H144.574L144.046 24.3746H138.291L136.907 31H133.897L137.214 15Z" fill="url(#paint1_linear_11_176)"/>
<path d="M153.991 17.7268H149.312L149.861 15H162.229L161.658 17.7268H157.001L154.255 31H151.223L153.991 17.7268Z" fill="url(#paint2_linear_11_176)"/>
<defs>
<linearGradient id="paint0_linear_11_176" x1="162.229" y1="15" x2="152.031" y2="43.3286" gradientUnits="userSpaceOnUse">
<stop stop-color="#4EEBF3"/>
<stop offset="0.510417" stop-color="#7578F6"/>
<stop offset="1" stop-color="#BB46FB"/>
</linearGradient>
<linearGradient id="paint1_linear_11_176" x1="162.229" y1="15" x2="152.031" y2="43.3286" gradientUnits="userSpaceOnUse">
<stop stop-color="#4EEBF3"/>
<stop offset="0.510417" stop-color="#7578F6"/>
<stop offset="1" stop-color="#BB46FB"/>
</linearGradient>
<linearGradient id="paint2_linear_11_176" x1="162.229" y1="15" x2="152.031" y2="43.3286" gradientUnits="userSpaceOnUse">
<stop stop-color="#4EEBF3"/>
<stop offset="0.510417" stop-color="#7578F6"/>
<stop offset="1" stop-color="#BB46FB"/>
</linearGradient>
</defs>
</svg>
