<svg width="48" height="14" viewBox="0 0 48 14" fill="none" xmlns="http://www.w3.org/2000/svg">
<path d="M0 4C0 1.79086 1.79086 0 4 0H44C46.2091 0 48 1.79086 48 4V10C48 12.2091 46.2091 14 44 14H4C1.79086 14 0 12.2091 0 10V4Z" fill="#4EEBF3"/>
<path d="M11.4879 4.38227C11.3967 4.2807 11.2644 4.17452 11.091 4.06371C10.9176 3.94367 10.7123 3.83287 10.475 3.7313C10.2378 3.62973 9.98229 3.54663 9.70854 3.48199C9.43478 3.41736 9.15191 3.38504 8.85991 3.38504C8.22115 3.38504 7.74665 3.50508 7.43639 3.74515C7.12614 3.98523 6.97101 4.31764 6.97101 4.74238C6.97101 5.05633 7.0577 5.30563 7.23108 5.4903C7.40446 5.66574 7.66908 5.81348 8.02496 5.93352C8.38084 6.05356 8.82797 6.18283 9.36635 6.32133C10.0234 6.4783 10.5937 6.66759 11.0773 6.8892C11.5609 7.10157 11.9305 7.38781 12.186 7.74792C12.4415 8.10803 12.5692 8.58356 12.5692 9.17452C12.5692 9.67313 12.478 10.1025 12.2955 10.4626C12.113 10.8227 11.8575 11.1182 11.529 11.349C11.2005 11.5706 10.8218 11.7368 10.3929 11.8476C9.96404 11.9492 9.50322 12 9.01047 12C8.52684 12 8.04321 11.9492 7.55958 11.8476C7.08508 11.7461 6.62883 11.5983 6.19082 11.4044C5.76194 11.2013 5.365 10.9566 5 10.6704L5.69807 9.34072C5.81669 9.46076 5.98551 9.59464 6.20451 9.74238C6.43264 9.88089 6.6927 10.0148 6.9847 10.144C7.28583 10.2733 7.60977 10.3841 7.95652 10.4765C8.3124 10.5596 8.67284 10.6011 9.03784 10.6011C9.64922 10.6011 10.1146 10.4949 10.434 10.2825C10.7625 10.0609 10.9267 9.747 10.9267 9.34072C10.9267 9.00831 10.8218 8.74515 10.6119 8.55125C10.402 8.34811 10.0964 8.17729 9.69485 8.03878C9.29335 7.90028 8.81428 7.76177 8.25765 7.62327C7.6189 7.44783 7.08508 7.25854 6.6562 7.0554C6.22732 6.84303 5.90338 6.57525 5.68438 6.25208C5.4745 5.91967 5.36957 5.49954 5.36957 4.99169C5.36957 4.34534 5.52469 3.80055 5.83494 3.35734C6.1452 2.90489 6.56495 2.56787 7.0942 2.34626C7.63258 2.11542 8.23484 2 8.90097 2C9.33897 2 9.75416 2.05078 10.1465 2.15235C10.5389 2.24469 10.9039 2.37396 11.2415 2.54017C11.5883 2.70637 11.9031 2.89566 12.186 3.10803L11.4879 4.38227Z" fill="#202833"/>
<path d="M18.1446 11.9723C17.442 11.9723 16.8078 11.8338 16.242 11.5568C15.6763 11.2798 15.1881 10.9058 14.7774 10.4349C14.3668 9.95476 14.0474 9.41921 13.8193 8.82826C13.6003 8.22807 13.4908 7.61404 13.4908 6.98615C13.4908 6.33056 13.6094 5.70729 13.8467 5.11634C14.0839 4.51616 14.4124 3.98523 14.8322 3.52355C15.2519 3.05263 15.7447 2.68329 16.3105 2.41551C16.8853 2.1385 17.5058 2 18.172 2C18.8655 2 19.4951 2.14312 20.0609 2.42936C20.6357 2.7156 21.1239 3.0988 21.5254 3.57895C21.9361 4.0591 22.2509 4.59464 22.4699 5.1856C22.698 5.77655 22.8121 6.38135 22.8121 7C22.8121 7.65559 22.6934 8.28347 22.4562 8.88366C22.2281 9.47461 21.9041 10.0055 21.4844 10.4765C21.0646 10.9381 20.5673 11.3029 19.9924 11.5706C19.4267 11.8384 18.8107 11.9723 18.1446 11.9723ZM15.0512 6.98615C15.0512 7.44783 15.1242 7.89566 15.2702 8.32964C15.4162 8.76362 15.6215 9.15143 15.8861 9.49307C16.1599 9.82548 16.4884 10.0886 16.8716 10.2825C17.2549 10.4765 17.6838 10.5734 18.1583 10.5734C18.651 10.5734 19.089 10.4718 19.4723 10.2687C19.8555 10.0656 20.1749 9.79317 20.4304 9.45152C20.695 9.10065 20.8958 8.71283 21.0327 8.28809C21.1696 7.85411 21.238 7.42013 21.238 6.98615C21.238 6.52447 21.165 6.08126 21.019 5.65651C20.8821 5.22253 20.6768 4.83934 20.403 4.50693C20.1293 4.16528 19.8008 3.89751 19.4175 3.7036C19.0434 3.5097 18.6237 3.41274 18.1583 3.41274C17.6655 3.41274 17.2275 3.51431 16.8443 3.71745C16.461 3.92059 16.1371 4.19298 15.8724 4.53463C15.6078 4.87627 15.4025 5.25946 15.2565 5.68421C15.1196 6.10896 15.0512 6.54294 15.0512 6.98615Z" fill="#202833"/>
<path d="M28.437 11.9723C27.7344 11.9723 27.1002 11.8338 26.5345 11.5568C25.9687 11.2798 25.4805 10.9058 25.0699 10.4349C24.6592 9.95476 24.3399 9.41921 24.1117 8.82826C23.8927 8.22807 23.7832 7.61404 23.7832 6.98615C23.7832 6.33056 23.9019 5.70729 24.1391 5.11634C24.3764 4.51616 24.7049 3.98523 25.1246 3.52355C25.5444 3.05263 26.0371 2.68329 26.6029 2.41551C27.1778 2.1385 27.7983 2 28.4644 2C29.1579 2 29.7875 2.14312 30.3533 2.42936C30.9282 2.7156 31.4164 3.0988 31.8179 3.57895C32.2285 4.0591 32.5433 4.59464 32.7623 5.1856C32.9904 5.77655 33.1045 6.38135 33.1045 7C33.1045 7.65559 32.9859 8.28347 32.7486 8.88366C32.5205 9.47461 32.1966 10.0055 31.7768 10.4765C31.357 10.9381 30.8597 11.3029 30.2849 11.5706C29.7191 11.8384 29.1032 11.9723 28.437 11.9723ZM25.3436 6.98615C25.3436 7.44783 25.4166 7.89566 25.5626 8.32964C25.7086 8.76362 25.9139 9.15143 26.1786 9.49307C26.4523 9.82548 26.7808 10.0886 27.1641 10.2825C27.5473 10.4765 27.9762 10.5734 28.4507 10.5734C28.9435 10.5734 29.3815 10.4718 29.7647 10.2687C30.148 10.0656 30.4674 9.79317 30.7229 9.45152C30.9875 9.10065 31.1882 8.71283 31.3251 8.28809C31.462 7.85411 31.5304 7.42013 31.5304 6.98615C31.5304 6.52447 31.4574 6.08126 31.3114 5.65651C31.1746 5.22253 30.9692 4.83934 30.6955 4.50693C30.4217 4.16528 30.0932 3.89751 29.71 3.7036C29.3358 3.5097 28.9161 3.41274 28.4507 3.41274C27.958 3.41274 27.52 3.51431 27.1367 3.71745C26.7535 3.92059 26.4295 4.19298 26.1649 4.53463C25.9003 4.87627 25.6949 5.25946 25.5489 5.68421C25.4121 6.10896 25.3436 6.54294 25.3436 6.98615Z" fill="#202833"/>
<path d="M36.2246 4.95014V11.903H34.6916V2.06925H35.9509L41.4533 9.17452V2.0831H43V11.903H41.6586L36.2246 4.95014Z" fill="#202833"/>
</svg>
